<svg viewBox="0 0 172 59" version="1.1" xmlns="http://www.w3.org/2000/svg" xmlns:xlink="http://www.w3.org/1999/xlink">
    <!-- Generator: Sketch 39 (31667) - http://www.bohemiancoding.com/sketch -->
    <title>store_ap_white</title>
    <desc>Created with Sketch.</desc>
    <defs>
        <mask id="mask-2" maskContentUnits="userSpaceOnUse" maskUnits="objectBoundingBox" x="0" y="0" width="172" height="59" fill="white">
            <use xlink:href="#path-1"></use>
        </mask>
    </defs>
    <g id="New" stroke="none" stroke-width="1" fill="none" fill-rule="evenodd">
        <g id="Home" transform="translate(-72.000000, -512.000000)">
            <g id="Cover">
                <g id="store_ap_white" transform="translate(72.000000, 512.000000)">
                    <path d="M58.8704992,42.2860294 L61.5771126,42.2860294 L56.5645037,28.1862347 L53.7308651,28.1862347 L48.7280273,42.2860294 L51.2783021,42.2860294 L52.4899268,38.6804686 L57.6784168,38.6804686 L58.8704992,42.2860294 Z M55.0108881,30.8733058 L55.1769979,30.8733058 L57.0921467,36.6871504 L53.0761969,36.6871504 L55.0108881,30.8733058 Z M69.5699277,31.4204911 C68.1042525,31.4204911 66.8633143,32.1533287 66.2477307,33.3649535 L66.0816209,33.3649535 L66.0816209,31.5963722 L63.7463118,31.5963722 L63.7463118,45.8427344 L66.1695614,45.8427344 L66.1695614,40.6640156 L66.3356712,40.6640156 C66.8828566,41.797471 68.0651679,42.4619104 69.5992412,42.4619104 C72.2960834,42.4619104 73.9767242,40.3513382 73.9767242,36.9412008 C73.9767242,33.511521 72.2765411,31.4204911 69.5699277,31.4204911 L69.5699277,31.4204911 Z M68.8077766,40.4001941 C67.1564493,40.4001941 66.1304767,39.0810865 66.1207055,36.9412008 C66.1304767,34.8110863 67.1662205,33.4822075 68.8175478,33.4822075 C70.4786462,33.4822075 71.4850765,34.7817728 71.4850765,36.9412008 C71.4850765,39.1006288 70.4884174,40.4001941 68.8077766,40.4001941 L68.8077766,40.4001941 Z M82.2333608,31.4204911 C80.7676856,31.4204911 79.5267474,32.1533287 78.9111638,33.3649535 L78.745054,33.3649535 L78.745054,31.5963722 L76.4097449,31.5963722 L76.4097449,45.8427344 L78.8329945,45.8427344 L78.8329945,40.6640156 L78.9991043,40.6640156 C79.5462897,41.797471 80.728601,42.4619104 82.2626743,42.4619104 C84.9595165,42.4619104 86.6401573,40.3513382 86.6401573,36.9412008 C86.6401573,33.511521 84.9399742,31.4204911 82.2333608,31.4204911 L82.2333608,31.4204911 Z M81.4712097,40.4001941 C79.8198824,40.4001941 78.7939098,39.0810865 78.7841386,36.9412008 C78.7939098,34.8110863 79.8296536,33.4822075 81.4809809,33.4822075 C83.1420793,33.4822075 84.1485096,34.7817728 84.1485096,36.9412008 C84.1485096,39.1006288 83.1518505,40.4001941 81.4712097,40.4001941 L81.4712097,40.4001941 Z M94.0173888,38.4557317 C94.144414,41.0157776 96.2842997,42.6377914 99.5185561,42.6377914 C102.938465,42.6377914 105.058808,40.9278371 105.058808,38.1821391 C105.058808,36.0324822 103.856954,34.8403998 100.994002,34.1955027 L99.3719886,33.8241983 C97.6229496,33.4235805 96.9096544,32.8666239 96.9096544,31.9188207 C96.9096544,30.7169671 97.9844828,29.9352737 99.6064966,29.9352737 C101.150341,29.9352737 102.244712,30.7169671 102.420593,31.9579053 L104.834071,31.9579053 C104.716817,29.5346558 102.576932,27.8344727 99.6162678,27.8344727 C96.4601807,27.8344727 94.3691508,29.5346558 94.3691508,32.0947017 C94.3691508,34.1955027 95.5710044,35.4657545 98.1310503,36.0422534 L99.9582586,36.4624136 C101.765925,36.8825738 102.537847,37.478615 102.537847,38.4948164 C102.537847,39.6771277 101.335993,40.5272193 99.6748948,40.5272193 C97.8867711,40.5272193 96.6360617,39.7162124 96.479723,38.4557317 L94.0173888,38.4557317 Z M108.410319,28.9776993 L108.410319,31.6647703 L106.719907,31.6647703 L106.719907,33.5994615 L108.410319,33.5994615 L108.410319,39.4328485 C108.410319,41.504336 109.387435,42.3348853 111.839998,42.3348853 C112.309014,42.3348853 112.758488,42.2860294 113.11025,42.2176312 L113.11025,40.3220247 C112.817115,40.3513382 112.631463,40.3708806 112.289472,40.3708806 C111.273271,40.3708806 110.823797,39.9018645 110.823797,38.8465785 L110.823797,33.5994615 L113.11025,33.5994615 L113.11025,31.6647703 L110.823797,31.6647703 L110.823797,28.9776993 L108.410319,28.9776993 Z M120.047779,40.4685923 C118.357367,40.4685923 117.390022,39.1787981 117.390022,36.9412008 C117.390022,34.7133746 118.357367,33.4138093 120.047779,33.4138093 C121.72842,33.4138093 122.695765,34.7133746 122.695765,36.9412008 C122.695765,39.1787981 121.738191,40.4685923 120.047779,40.4685923 L120.047779,40.4685923 Z M120.047779,42.5009951 C123.242951,42.5009951 125.187413,40.4099653 125.187413,36.9412008 C125.187413,33.4822075 123.23318,31.3814065 120.047779,31.3814065 C116.87215,31.3814065 114.908145,33.4919787 114.908145,36.9412008 C114.908145,40.4099653 116.842836,42.5009951 120.047779,42.5009951 L120.047779,42.5009951 Z M127.630205,42.2860294 L130.053455,42.2860294 L130.053455,36.1106515 C130.053455,34.6156629 131.147825,33.6385462 132.720983,33.6385462 C133.131372,33.6385462 133.776269,33.7069443 133.961922,33.7753425 L133.961922,31.527974 C133.737185,31.4595758 133.307253,31.4204911 132.955491,31.4204911 C131.577757,31.4204911 130.424759,32.2021845 130.131624,33.2574706 L129.965514,33.2574706 L129.965514,31.5963722 L127.630205,31.5963722 L127.630205,42.2860294 Z M140.166613,33.3063265 C141.622517,33.3063265 142.580091,34.3225279 142.628947,35.905457 L137.596796,35.905457 C137.704279,34.3420702 138.72048,33.3063265 140.166613,33.3063265 L140.166613,33.3063265 Z M142.64849,39.344908 C142.296728,40.1363726 141.466178,40.5760751 140.264325,40.5760751 C138.671624,40.5760751 137.645652,39.462162 137.587025,37.6838095 L137.587025,37.5567843 L145.052197,37.5567843 L145.052197,36.7750909 C145.052197,33.4040381 143.224988,31.3814065 140.176384,31.3814065 C137.078924,31.3814065 135.154004,33.5408345 135.154004,36.9802855 C135.154004,40.4197364 137.049611,42.5009951 140.195926,42.5009951 C142.716888,42.5009951 144.485469,41.2893703 144.944714,39.344908 L142.64849,39.344908 Z" id="App-Store" fill="#FFFFFF"></path>
                    <path d="M55.2359839,23.0169136 L56.5550386,23.0169136 L53.667528,15.0194514 L52.3318465,15.0194514 L49.4443359,23.0169136 L50.7190527,23.0169136 L51.4561715,20.8942331 L54.5044073,20.8942331 L55.2359839,23.0169136 Z M52.9359514,16.4715201 L53.0301696,16.4715201 L54.1884992,19.8522907 L51.7720796,19.8522907 L52.9359514,16.4715201 Z M56.5328696,16.9814068 L58.7109726,23.0169136 L59.9912316,23.0169136 L62.1637924,16.9814068 L60.9001601,16.9814068 L59.4037535,21.7421968 L59.3095353,21.7421968 L57.8075864,16.9814068 L56.5328696,16.9814068 Z M65.1344367,22.1135274 C64.4859938,22.1135274 64.0149028,21.7976193 64.0149028,21.2544791 C64.0149028,20.7224234 64.3917756,20.4397688 65.2231126,20.3843464 L66.6973503,20.2901282 L66.6973503,20.7944726 C66.6973503,21.5426759 66.0322807,22.1135274 65.1344367,22.1135274 L65.1344367,22.1135274 Z M64.8296131,23.116674 C65.6221544,23.116674 66.2816818,22.7730547 66.6419278,22.1689498 L66.736146,22.1689498 L66.736146,23.0169136 L67.8833911,23.0169136 L67.8833911,18.893482 C67.8833911,17.6187652 67.0298851,16.8650196 65.5168517,16.8650196 C64.1479167,16.8650196 63.1724813,17.5300893 63.0505519,18.5664894 L64.2033392,18.5664894 C64.3363531,18.1397364 64.7963596,17.8958775 65.4614292,17.8958775 C66.2761395,17.8958775 66.6973503,18.2561236 66.6973503,18.893482 L66.6973503,19.4144532 L65.0623875,19.5086714 C63.6269455,19.5973473 62.8177775,20.2236212 62.8177775,21.3099016 C62.8177775,22.4128087 63.6657413,23.116674 64.8296131,23.116674 L64.8296131,23.116674 Z M69.6014876,23.0169136 L70.7875284,23.0169136 L70.7875284,16.9814068 L69.6014876,16.9814068 L69.6014876,23.0169136 Z M70.194508,15.9228377 C70.6378878,15.9228377 70.9648803,15.6069296 70.9648803,15.1968033 C70.9648803,14.7811348 70.6378878,14.4652268 70.194508,14.4652268 C69.7511283,14.4652268 69.4241357,14.7811348 69.4241357,15.1968033 C69.4241357,15.6069296 69.7511283,15.9228377 70.194508,15.9228377 L70.194508,15.9228377 Z M72.5943009,23.0169136 L73.7858839,23.0169136 L73.7858839,14.6259519 L72.5943009,14.6259519 L72.5943009,23.0169136 Z M77.5435273,22.1135274 C76.8950844,22.1135274 76.4239934,21.7976193 76.4239934,21.2544791 C76.4239934,20.7224234 76.8008662,20.4397688 77.6322032,20.3843464 L79.1064409,20.2901282 L79.1064409,20.7944726 C79.1064409,21.5426759 78.4413713,22.1135274 77.5435273,22.1135274 L77.5435273,22.1135274 Z M77.2387037,23.116674 C78.031245,23.116674 78.6907724,22.7730547 79.0510184,22.1689498 L79.1452366,22.1689498 L79.1452366,23.0169136 L80.2924817,23.0169136 L80.2924817,18.893482 C80.2924817,17.6187652 79.4389757,16.8650196 77.9259423,16.8650196 C76.5570073,16.8650196 75.5815719,17.5300893 75.4596425,18.5664894 L76.6124298,18.5664894 C76.7454437,18.1397364 77.2054502,17.8958775 77.8705198,17.8958775 C78.6852301,17.8958775 79.1064409,18.2561236 79.1064409,18.893482 L79.1064409,19.4144532 L77.4714781,19.5086714 C76.0360361,19.5973473 75.2268681,20.2236212 75.2268681,21.3099016 C75.2268681,22.4128087 76.0748319,23.116674 77.2387037,23.116674 L77.2387037,23.116674 Z M85.1862856,23.116674 C86.7104035,23.116674 87.6802967,21.9084642 87.6802967,19.9963891 C87.6802967,18.0787717 86.7159458,16.8816464 85.1862856,16.8816464 C84.3604909,16.8816464 83.6510833,17.2806881 83.329633,17.9402155 L83.2354148,17.9402155 L83.2354148,14.6259519 L82.0438317,14.6259519 L82.0438317,23.0169136 L83.1910768,23.0169136 L83.1910768,22.0636471 L83.2797527,22.0636471 C83.6399988,22.7287168 84.3438641,23.116674 85.1862856,23.116674 L85.1862856,23.116674 Z M84.8426663,17.9513 C85.8513553,17.9513 86.4554602,18.7272146 86.4554602,19.9963891 C86.4554602,21.2766481 85.8513553,22.0470204 84.8426663,22.0470204 C83.8395197,22.0470204 83.218788,21.2655636 83.2132458,20.0019313 C83.218788,18.7382991 83.8450619,17.9513 84.8426663,17.9513 L84.8426663,17.9513 Z M89.1656189,23.0169136 L90.3572019,23.0169136 L90.3572019,14.6259519 L89.1656189,14.6259519 L89.1656189,23.0169136 Z M94.6191897,17.8792508 C95.500407,17.8792508 96.0768006,18.4944402 96.1045119,19.4421644 L93.0562761,19.4421644 C93.1227831,18.4999824 93.7379725,17.8792508 94.6191897,17.8792508 L94.6191897,17.8792508 Z M96.0989696,21.387493 C95.8772797,21.858584 95.3840198,22.1190696 94.6635277,22.1190696 C93.7102612,22.1190696 93.0950718,21.4484577 93.0562761,20.3898886 L93.0562761,20.3233816 L97.3182639,20.3233816 L97.3182639,19.9077131 C97.3182639,18.0122647 96.3040327,16.8650196 94.624732,16.8650196 C92.9232622,16.8650196 91.8425241,18.0898562 91.8425241,20.0185581 C91.8425241,21.94726 92.9010932,23.1333008 94.6302742,23.1333008 C96.0102937,23.1333008 96.9746446,22.4682312 97.2462147,21.387493 L96.0989696,21.387493 Z M104.401255,22.0747316 C103.364855,22.0747316 102.782919,21.3154438 102.782919,19.9963891 C102.782919,18.6884188 103.364855,17.9235888 104.401255,17.9235888 C105.432113,17.9235888 106.019591,18.6884188 106.019591,19.9963891 C106.019591,21.3099016 105.432113,22.0747316 104.401255,22.0747316 L104.401255,22.0747316 Z M104.401255,23.1333008 C106.16369,23.1333008 107.244428,21.9528022 107.244428,19.9963891 C107.244428,18.0510605 106.158148,16.8650196 104.401255,16.8650196 C102.638821,16.8650196 101.55254,18.0510605 101.55254,19.9963891 C101.55254,21.9528022 102.633279,23.1333008 104.401255,23.1333008 L104.401255,23.1333008 Z M108.674328,23.0169136 L109.865911,23.0169136 L109.865911,19.4865024 C109.865911,18.5443204 110.425678,17.9568423 111.306895,17.9568423 C112.188112,17.9568423 112.609323,18.4390177 112.609323,19.4089109 L112.609323,23.0169136 L113.800906,23.0169136 L113.800906,19.1096296 C113.800906,17.6741877 113.058245,16.8650196 111.711479,16.8650196 C110.80255,16.8650196 110.203988,17.2696037 109.910249,17.9402155 L109.821573,17.9402155 L109.821573,16.9814068 L108.674328,16.9814068 L108.674328,23.0169136 Z M118.999533,15.4794579 L118.999533,17.0091181 L118.040725,17.0091181 L118.040725,18.0122647 L118.999533,18.0122647 L118.999533,21.4207465 C118.999533,22.5846183 119.526047,23.0501671 120.850644,23.0501671 C121.083418,23.0501671 121.305108,23.0224558 121.499087,22.9892024 L121.499087,21.9971402 C121.332819,22.0137669 121.227517,22.0248514 121.044623,22.0248514 C120.451602,22.0248514 120.191117,21.7477391 120.191117,21.1159229 L120.191117,18.0122647 L121.499087,18.0122647 L121.499087,17.0091181 L120.191117,17.0091181 L120.191117,15.4794579 L118.999533,15.4794579 Z M122.956698,23.0169136 L124.148281,23.0169136 L124.148281,19.4920446 C124.148281,18.5775739 124.691421,17.9623845 125.666856,17.9623845 C126.509278,17.9623845 126.9582,18.4501022 126.9582,19.4144532 L126.9582,23.0169136 L128.149783,23.0169136 L128.149783,19.1207141 C128.149783,17.6852722 127.357242,16.8705619 126.07144,16.8705619 C125.162512,16.8705619 124.525154,17.2751459 124.231414,17.9513 L124.137196,17.9513 L124.137196,14.6259519 L122.956698,14.6259519 L122.956698,23.0169136 Z M132.300926,17.8792508 C133.182143,17.8792508 133.758537,18.4944402 133.786248,19.4421644 L130.738012,19.4421644 C130.804519,18.4999824 131.419709,17.8792508 132.300926,17.8792508 L132.300926,17.8792508 Z M133.780706,21.387493 C133.559016,21.858584 133.065756,22.1190696 132.345264,22.1190696 C131.391997,22.1190696 130.776808,21.4484577 130.738012,20.3898886 L130.738012,20.3233816 L135,20.3233816 L135,19.9077131 C135,18.0122647 133.985769,16.8650196 132.306468,16.8650196 C130.604998,16.8650196 129.52426,18.0898562 129.52426,20.0185581 C129.52426,21.94726 130.582829,23.1333008 132.31201,23.1333008 C133.69203,23.1333008 134.656381,22.4682312 134.927951,21.387493 L133.780706,21.387493 Z" id="Available-on-the" fill="#FFFFFF"></path>
                    <path d="M16.843,40.8422 L32.219,40.8422 L32.219,18.1012 L16.843,18.1012 L16.843,40.8422 Z M24.529,45.3212 C23.667,45.3212 22.964,44.6182 22.964,43.7552 C22.964,42.8892 23.667,42.1842 24.529,42.1842 C25.396,42.1842 26.097,42.8892 26.097,43.7552 C26.097,44.6182 25.396,45.3212 24.529,45.3212 L24.529,45.3212 Z M23.023,15.0692 L26.036,15.0692 C26.233,15.0692 26.395,15.2302 26.395,15.4302 C26.395,15.6192 26.233,15.7812 26.036,15.7812 L23.023,15.7812 C22.832,15.7812 22.668,15.6192 22.668,15.4302 C22.668,15.2302 22.832,15.0692 23.023,15.0692 L23.023,15.0692 Z M31.029,12.0002 L18.034,12.0002 C16.362,12.0002 15,13.3582 15,15.0292 L15,43.9062 C15,45.5772 16.362,46.9312 18.034,46.9312 L31.029,46.9312 C32.699,46.9312 34.062,45.5772 34.062,43.9062 L34.062,15.0292 C34.062,13.3582 32.699,12.0002 31.029,12.0002 L31.029,12.0002 Z" id="Page-1" fill="#FFFFFF"></path>
                </g>
            </g>
        </g>
    </g>
</svg>
