<svg viewBox="0 0 172 59" version="1.1" xmlns="http://www.w3.org/2000/svg" xmlns:xlink="http://www.w3.org/1999/xlink">
    <!-- Generator: Sketch 39 (31667) - http://www.bohemiancoding.com/sketch -->
    <title>store_an_white</title>
    <desc>Created with Sketch.</desc>
    <defs>
        <mask id="mask-2" maskContentUnits="userSpaceOnUse" maskUnits="objectBoundingBox" x="0" y="0" width="172" height="59" fill="white">
            <use xlink:href="#path-1"></use>
        </mask>
        <polygon id="path-3" points="0 0.7889 0 15.792525 14.3935982 15.792525 14.3935982 0.7889 4.70140765e-20 0.7889"></polygon>
        <polygon id="path-5" points="0 20.211275 97.8941947 20.211275 97.8941947 0.87465 0 0.87465"></polygon>
    </defs>
    <g id="New" stroke="none" stroke-width="1" fill="none" fill-rule="evenodd">
        <g id="Home" transform="translate(-259.000000, -512.000000)">
            <g id="Cover">
                <g id="store_an_white" transform="translate(259.000000, 512.000000)">
                    <path d="M55.2597656,21.1015625 C55.1751298,21.2024745 55.059571,21.3107091 54.9130859,21.4262695 C54.7666008,21.54183 54.5826834,21.6492508 54.3613281,21.7485352 C54.1399729,21.8478195 53.878745,21.9308265 53.5776367,21.9975586 C53.2765284,22.0642907 52.930666,22.0976562 52.5400391,22.0976562 C52.0810524,22.0976562 51.6619485,22.0219734 51.2827148,21.8706055 C50.9034812,21.7192375 50.5787774,21.4970718 50.3085938,21.2041016 C50.0384101,20.9111313 49.8292651,20.5514344 49.6811523,20.125 C49.5330396,19.6985656 49.4589844,19.2102892 49.4589844,18.6601562 L49.4589844,18.2402344 C49.4589844,17.6901014 49.5297844,17.2010113 49.6713867,16.7729492 C49.812989,16.3448872 50.0131823,15.9843765 50.2719727,15.6914062 C50.530763,15.398436 50.8440737,15.1754565 51.2119141,15.0224609 C51.5797544,14.8694654 51.988279,14.7929688 52.4375,14.7929688 C52.8997419,14.7929688 53.2993147,14.8507481 53.6362305,14.9663086 C53.9731462,15.0818691 54.2547189,15.2438141 54.480957,15.4521484 C54.7071951,15.6604828 54.8837884,15.9095038 55.0107422,16.1992188 C55.1376959,16.4889337 55.2207029,16.8063134 55.2597656,17.1513672 L53.8339844,17.1513672 C53.8046874,16.9723298 53.7591149,16.8103848 53.6972656,16.6655273 C53.6354164,16.5206698 53.5507818,16.3969732 53.4433594,16.2944336 C53.335937,16.191894 53.2032885,16.112956 53.0454102,16.0576172 C52.8875318,16.0022784 52.6995454,15.9746094 52.4814453,15.9746094 C51.9801407,15.9746094 51.5992852,16.1642234 51.3388672,16.543457 C51.0784492,16.9226907 50.9482422,17.4850223 50.9482422,18.2304688 L50.9482422,18.6601562 C50.9482422,19.4056027 51.0898423,19.9687481 51.3730469,20.3496094 C51.6562514,20.7304707 52.0712863,20.9208984 52.6181641,20.9208984 C52.7939462,20.9208984 52.9469395,20.9095053 53.0771484,20.8867188 C53.2073574,20.8639322 53.3188472,20.8354494 53.4116211,20.8012695 C53.504395,20.7670897 53.5817054,20.7296552 53.6435547,20.6889648 C53.705404,20.6482745 53.7558592,20.6083986 53.7949219,20.5693359 L53.7949219,19.34375 L52.4619141,19.34375 L52.4619141,18.2646484 L55.2597656,18.2646484 L55.2597656,21.1015625 Z M61.0569662,18.9189453 L58.2444662,18.9189453 L58.2444662,20.8232422 L61.5452474,20.8232422 L61.5452474,22 L56.7796224,22 L56.7796224,14.890625 L61.5354818,14.890625 L61.5354818,16.0771484 L58.2444662,16.0771484 L58.2444662,17.7714844 L61.0569662,17.7714844 L61.0569662,18.9189453 Z M68.1871745,16.0771484 L66.0094401,16.0771484 L66.0094401,22 L64.5445964,22 L64.5445964,16.0771484 L62.3961589,16.0771484 L62.3961589,14.890625 L68.1871745,14.890625 L68.1871745,16.0771484 Z M73.4436849,22 L71.9788412,22 L71.9788412,14.890625 L73.4436849,14.890625 L73.4436849,22 Z M80.3444011,16.0771484 L78.1666667,16.0771484 L78.1666667,22 L76.701823,22 L76.701823,16.0771484 L74.5533855,16.0771484 L74.5533855,14.890625 L80.3444011,14.890625 L80.3444011,16.0771484 Z M89.8831381,18.6064453 C89.8831381,19.1500678 89.8098966,19.6375304 89.6634115,20.0688477 C89.5169264,20.5001649 89.3110366,20.8655584 89.0457357,21.1650391 C88.7804349,21.4645197 88.4622415,21.6948234 88.0911459,21.855957 C87.7200503,22.0170906 87.3115257,22.0976562 86.86556,22.0976562 C86.4195942,22.0976562 86.0110696,22.0170906 85.639974,21.855957 C85.2688784,21.6948234 84.9490574,21.4645197 84.6805014,21.1650391 C84.4119453,20.8655584 84.2028003,20.5001649 84.05306,20.0688477 C83.9033196,19.6375304 83.8284506,19.1500678 83.8284506,18.6064453 L83.8284506,18.2939453 C83.8284506,17.753578 83.9025058,17.2669292 84.0506186,16.8339844 C84.1987313,16.4010395 84.4062487,16.0332046 84.6731772,15.7304688 C84.9401056,15.4277329 85.2591128,15.1958016 85.6302084,15.034668 C86.001304,14.8735344 86.4098286,14.7929688 86.8557943,14.7929688 C87.3017601,14.7929688 87.7102847,14.8735344 88.0813803,15.034668 C88.4524759,15.1958016 88.7714831,15.4277329 89.0384115,15.7304688 C89.3053399,16.0332046 89.5128574,16.4010395 89.6609701,16.8339844 C89.8090828,17.2669292 89.8831381,17.753578 89.8831381,18.2939453 L89.8831381,18.6064453 Z M88.3987631,18.2841797 C88.3987631,17.5387333 88.2653009,16.9723327 87.9983725,16.5849609 C87.731444,16.1975892 87.3505885,16.0039062 86.8557943,16.0039062 C86.3610002,16.0039062 85.9801446,16.1975892 85.7132162,16.5849609 C85.4462878,16.9723327 85.3128256,17.5387333 85.3128256,18.2841797 L85.3128256,18.6064453 C85.3128256,18.9775409 85.3478187,19.3054999 85.4178061,19.590332 C85.4877934,19.8751642 85.5887038,20.1144196 85.7205404,20.3081055 C85.852377,20.5017913 86.014322,20.6482742 86.2063803,20.7475586 C86.3984385,20.8468429 86.6181629,20.8964844 86.86556,20.8964844 C87.3603541,20.8964844 87.7395821,20.7011738 88.0032553,20.3105469 C88.2669285,19.9199199 88.3987631,19.3518917 88.3987631,18.6064453 L88.3987631,18.2841797 Z M97.0621746,22 L95.5973308,22 L92.7457683,17.3222656 L92.7457683,22 L91.2809246,22 L91.2809246,14.890625 L92.7457683,14.890625 L95.6022136,19.578125 L95.6022136,14.890625 L97.0621746,14.890625 L97.0621746,22 Z" id="GET-IT-ON" fill="#FFFFFF"></path>
                    <g id="Page-1" transform="translate(49.000000, 26.000000)">
                        <g id="Group-3" transform="translate(0.000000, 0.086275)">
                            <g id="Clip-2"></g>
                            <path d="M14.3935982,8.87215 C14.3935982,10.87765 13.8038637,12.476275 12.6243947,13.666275 C11.2853504,15.083775 9.5421646,15.792525 7.39570442,15.792525 C5.34117345,15.792525 3.59451858,15.07415 2.15747434,13.63565 C0.717828319,12.1989 -0.00026017699,10.416525 -0.00026017699,8.290275 C-0.00026017699,6.164025 0.717828319,4.382525 2.15747434,2.9449 C3.59451858,1.507275 5.34117345,0.7889 7.39570442,0.7889 C8.41559823,0.7889 9.38952743,0.9884 10.3183593,1.390025 C11.2454566,1.790775 11.9886956,2.32715 12.5446071,2.994775 L11.2922885,4.25915 C10.351315,3.122525 9.0521646,2.5529 7.39570442,2.5529 C5.89708496,2.5529 4.6022708,3.0849 3.50866018,4.1489 C2.41504956,5.21115 1.86867788,6.592775 1.86867788,8.290275 C1.86867788,9.98865 2.41504956,11.3694 3.50866018,12.432525 C4.6022708,13.49565 5.89708496,14.02765 7.39570442,14.02765 C8.9862531,14.02765 10.3114212,13.49215 11.3720761,12.4229 C12.0615451,11.727275 12.4587487,10.7569 12.564554,9.513525 L7.39570442,9.513525 L7.39570442,7.7889 L14.294731,7.7889 C14.3606425,8.1634 14.3935982,8.524775 14.3935982,8.87215" id="Fill-1" fill="#FFFFFF" mask="url(#mask-4)"></path>
                        </g>
                        <path d="M17.9227257,13.2206375 C18.552354,13.8690125 19.2973274,14.1936375 20.1593805,14.1936375 C21.0205664,14.1936375 21.7664071,13.8690125 22.3960354,13.2206375 C23.0256637,12.5722625 23.3404779,11.7130125 23.3404779,10.6437625 C23.3404779,9.5736375 23.0256637,8.7152625 22.3960354,8.0651375 C21.7664071,7.4167625 21.0205664,7.0930125 20.1593805,7.0930125 C19.2973274,7.0930125 18.552354,7.4167625 17.9227257,8.0651375 C17.2922301,8.7152625 16.9782832,9.5736375 16.9782832,10.6437625 C16.9782832,11.7130125 17.2922301,12.5722625 17.9227257,13.2206375 M16.5611327,6.9022625 C17.5021062,5.9065125 18.7006549,5.4077625 20.1593805,5.4077625 C21.6172389,5.4077625 22.8166549,5.9065125 23.7584956,6.9022625 C24.6986018,7.8988875 25.1686549,9.1457625 25.1686549,10.6437625 C25.1686549,12.1417625 24.6986018,13.3877625 23.7584956,14.3843875 C22.8166549,15.3810125 21.6172389,15.8788875 20.1593805,15.8788875 C18.7006549,15.8788875 17.5021062,15.3810125 16.5611327,14.3843875 C15.6201593,13.3877625 15.1492389,12.1417625 15.1492389,10.6437625 C15.1492389,9.1457625 15.6201593,7.8988875 16.5611327,6.9022625" id="Fill-4" fill="#FFFFFF"></path>
                        <path d="M28.5593681,13.2206375 C29.1889965,13.8690125 29.9339699,14.1936375 30.796023,14.1936375 C31.6572088,14.1936375 32.4030496,13.8690125 33.0326779,13.2206375 C33.6623062,12.5722625 33.9771204,11.7130125 33.9771204,10.6437625 C33.9771204,9.5736375 33.6623062,8.7152625 33.0326779,8.0651375 C32.4030496,7.4167625 31.6572088,7.0930125 30.796023,7.0930125 C29.9339699,7.0930125 29.1889965,7.4167625 28.5593681,8.0651375 C27.9288726,8.7152625 27.6149257,9.5736375 27.6149257,10.6437625 C27.6149257,11.7130125 27.9288726,12.5722625 28.5593681,13.2206375 M27.1977752,6.9022625 C28.1387487,5.9065125 29.3372973,5.4077625 30.796023,5.4077625 C32.2538814,5.4077625 33.4532973,5.9065125 34.3951381,6.9022625 C35.3352442,7.8988875 35.8052973,9.1457625 35.8052973,10.6437625 C35.8052973,12.1417625 35.3352442,13.3877625 34.3951381,14.3843875 C33.4532973,15.3810125 32.2538814,15.8788875 30.796023,15.8788875 C29.3372973,15.8788875 28.1387487,15.3810125 27.1977752,14.3843875 C26.2568018,13.3877625 25.7858814,12.1417625 25.7858814,10.6437625 C25.7858814,9.1457625 26.2568018,7.8988875 27.1977752,6.9022625" id="Fill-6" fill="#FFFFFF"></path>
                        <path d="M41.3530513,14.1939 C42.2142372,14.1939 42.947069,13.872775 43.5498124,13.230525 C44.153423,12.58915 44.4543611,11.7264 44.4543611,10.64315 C44.4543611,9.5599 44.153423,8.698025 43.5498124,8.055775 C42.947069,7.413525 42.2142372,7.093275 41.3530513,7.093275 C40.5040071,7.093275 39.7755115,7.417025 39.1666973,8.0654 C38.5561487,8.71465 38.2517416,9.5739 38.2517416,10.64315 C38.2517416,11.713275 38.5561487,12.57165 39.1666973,13.2209 C39.7755115,13.869275 40.5040071,14.1939 41.3530513,14.1939 M41.2142903,20.211275 C40.0608389,20.211275 39.1198655,19.920775 38.3905027,19.3389 C37.6611398,18.757025 37.1381841,18.09115 36.8199009,17.343025 L38.4902372,16.641275 C38.6758301,17.175025 39.0175292,17.6239 39.5144673,17.9844 C40.0105381,18.345775 40.5768566,18.526025 41.2142903,18.526025 C42.2211752,18.526025 43.0129805,18.2224 43.5897062,17.6134 C44.1664319,17.005275 44.4543611,16.18015 44.4543611,15.136275 L44.4543611,14.1939 L44.3745735,14.1939 C44.0562903,14.67515 43.6061841,15.076775 43.0233876,15.397025 C42.4397239,15.71815 41.7832106,15.87915 41.054715,15.87915 C39.7954584,15.87915 38.7087858,15.377775 37.7938301,14.37415 C36.8797416,13.3714 36.4218301,12.128025 36.4218301,10.64315 C36.4218301,9.15915 36.8797416,7.9149 37.7938301,6.91215 C38.7087858,5.9094 39.7954584,5.408025 41.054715,5.408025 C41.7832106,5.408025 42.4397239,5.569025 43.0233876,5.889275 C43.6061841,6.2104 44.0562903,6.61115 44.3745735,7.093275 L44.4543611,7.093275 L44.4543611,5.728275 L46.204485,5.728275 L46.204485,15.055775 C46.204485,16.741025 45.7196885,18.02115 44.7526973,18.8979 C43.7857062,19.7729 42.6053699,20.211275 41.2142903,20.211275" id="Fill-8" fill="#FFFFFF"></path>
                        <g id="Clip-11"></g>
                        <polygon id="Fill-10" fill="#FFFFFF" mask="url(#mask-6)" points="47.9341416 15.558025 49.7623186 15.558025 49.7623186 1.195775 47.9341416 1.195775"></polygon>
                        <path d="M58.4305487,9.4600625 C58.3906549,8.8974375 58.1348142,8.3636875 57.6647611,7.8553125 C57.1938407,7.3469375 56.4948319,7.0931875 55.5668673,7.0931875 C54.8912743,7.0931875 54.3050088,7.3066875 53.8080708,7.7345625 C53.3111327,8.1633125 52.9694336,8.7381875 52.7838407,9.4600625 L58.4305487,9.4600625 Z M55.8062301,15.8790625 C54.3344956,15.8790625 53.1376814,15.3846875 52.2175221,14.3941875 C51.2956283,13.4054375 50.835115,12.1541875 50.835115,10.6439375 C50.835115,9.2124375 51.2826195,7.9830625 52.1776283,6.9523125 C53.0717699,5.9233125 54.2156814,5.4079375 55.6067611,5.4079375 C57.0516106,5.4079375 58.2076637,5.8830625 59.0757876,6.8324375 C59.9439115,7.7818125 60.3784071,9.0523125 60.3784071,10.6439375 L60.3593274,10.9843125 L52.6650265,10.9843125 C52.7170619,11.9739375 53.0457522,12.7570625 53.6484956,13.3310625 C54.2521062,13.9059375 54.9571858,14.1938125 55.7663363,14.1938125 C57.0776283,14.1938125 57.9665664,13.6320625 58.4305487,12.5085625 L60.0601239,13.1910625 C59.742708,13.9531875 59.2180177,14.5919375 58.4895221,15.1064375 C57.7610265,15.6209375 56.8660177,15.8790625 55.8062301,15.8790625 L55.8062301,15.8790625 Z" id="Fill-12" fill="#FFFFFF" mask="url(#mask-6)"></path>
                        <path d="M67.5756832,7.9758 L70.6370991,7.9758 C71.4054885,7.9758 72.022108,7.714175 72.4860903,7.192675 C72.9500726,6.67205 73.1824973,6.097175 73.1824973,5.46805 C73.1824973,4.8398 72.9500726,4.264925 72.4860903,3.743425 C72.022108,3.22105 71.4054885,2.961175 70.6370991,2.961175 L67.5756832,2.961175 L67.5756832,7.9758 Z M67.5756832,15.557675 L65.7466389,15.557675 L65.7466389,1.195425 L70.5972053,1.195425 C71.8035593,1.195425 72.846869,1.60055 73.728869,2.40905 C74.6100018,3.218425 75.0505681,4.238675 75.0505681,5.46805 C75.0505681,6.6983 74.6100018,7.71855 73.728869,8.52705 C72.846869,9.336425 71.8035593,9.740675 70.5972053,9.740675 L67.5756832,9.740675 L67.5756832,15.557675 Z" id="Fill-13" fill="#FFFFFF" mask="url(#mask-6)"></path>
                        <polygon id="Fill-14" fill="#FFFFFF" mask="url(#mask-6)" points="76.244 15.558025 78.072177 15.558025 78.072177 1.195775 76.244 1.195775"></polygon>
                        <path d="M83.0821451,14.1939 C83.8375257,14.1939 84.5235257,13.909525 85.1401451,13.340775 C85.7567646,12.7729 86.0637735,12.1009 86.0637735,11.32565 C85.5477558,10.8969 84.7724283,10.6834 83.7386584,10.6834 C82.8497204,10.6834 82.1810655,10.87765 81.730092,11.2644 C81.2799858,11.653775 81.0544991,12.107025 81.0544991,12.6294 C81.0544991,13.11065 81.2591717,13.491275 81.6711186,13.773025 C82.081331,14.053025 82.5522513,14.1939 83.0821451,14.1939 M82.7838088,15.87915 C81.7500389,15.87915 80.8853841,15.577275 80.1898442,14.97615 C79.4934372,14.37415 79.1456673,13.578775 79.1456673,12.58915 C79.1456673,11.519025 79.5567469,10.6799 80.3789062,10.071775 C81.2001982,9.46365 82.2140212,9.15915 83.4203752,9.15915 C84.4940389,9.15915 85.3760389,9.359525 86.0637735,9.76115 L86.0637735,9.4794 C86.0637735,8.757525 85.8192071,8.17915 85.3292071,7.74515 C84.8383398,7.310275 84.2355965,7.093275 83.5201097,7.093275 C82.9902159,7.093275 82.5088885,7.22015 82.0787292,7.4739 C81.6477027,7.72765 81.3528354,8.0759 81.1932602,8.5169 L79.5229239,7.795025 C79.7484106,7.207025 80.192446,6.6619 80.8558973,6.15965 C81.5176142,5.658275 82.3926761,5.408025 83.4802159,5.408025 C84.7264637,5.408025 85.7593664,5.7764 86.5815257,6.5114 C87.4028177,7.247275 87.8138973,8.283275 87.8138973,9.620275 L87.8138973,15.558025 L86.0637735,15.558025 L86.0637735,14.1939 L85.9857204,14.1939 C85.2563575,15.316525 84.1887646,15.87915 82.7838088,15.87915" id="Fill-15" fill="#FFFFFF" mask="url(#mask-6)"></path>
                        <polygon id="Fill-16" fill="#FFFFFF" mask="url(#mask-6)" points="91.7911363 19.889975 89.9022513 19.889975 92.1692602 14.935725 88.1529947 5.7281 90.1407469 5.7281 93.0434549 12.790225 93.0833487 12.790225 95.906269 5.7281 97.8940212 5.7281"></polygon>
                    </g>
                    <g id="Page-1" transform="translate(15.000000, 17.000000)" fill="#FFFFFF">
                        <path d="M2.77725882,27.6692111 C6.76290588,23.5718778 10.7508471,19.4776556 14.7265529,15.3702111 C14.9735529,15.1158778 15.0890235,15.1493222 15.3100235,15.3842111 C16.3194353,16.4536556 17.3449059,17.5091 18.3742,18.5591 C18.5554353,18.7434333 18.5699647,18.8196556 18.3244941,18.9565444 C13.2086118,21.8047667 8.09655294,24.6615444 2.98372941,27.5159889 C2.89884706,27.5634333 2.82084706,27.6404333 2.77725882,27.6692111" id="Fill-7"></path>
                        <path d="M1.54807059,1.83669174e-13 C1.87612941,-0.00311111111 2.10707059,0.0941111111 2.3296,0.220888889 C7.82095294,3.34988889 13.3107765,6.48122222 18.8051882,9.60322222 C19.0575412,9.74711111 19.0529529,9.82722222 18.8579529,10.0224444 C17.6290706,11.2513333 16.4116588,12.4903333 15.1934824,13.7293333 C15.0627176,13.8638889 14.9816588,13.9408889 14.8057765,13.7581111 C10.4377765,9.22677778 6.06212941,4.70244444 1.68954118,0.175777778 C1.65283529,0.137666667 1.62301176,0.0933333333 1.54807059,1.83669174e-13" id="Fill-4"></path>
                        <path d="M25.5444647,14.147 C25.5276412,14.6066667 25.3142882,14.9294444 24.9915824,15.1713333 C24.7529941,15.3502222 24.4899353,15.4972222 24.2291706,15.6442222 C22.6829353,16.5137778 21.1313471,17.3755556 19.5881706,18.2513333 C19.3794059,18.3695556 19.2555235,18.3641111 19.0834647,18.1828889 C17.9845824,17.0286667 16.8757588,15.883 15.7615824,14.7451111 C15.5987,14.5794444 15.5941118,14.4884444 15.7608176,14.322 C17.0592882,13.0207778 18.3516412,11.7117778 19.6371118,10.3973333 C19.7892882,10.2425556 19.8971118,10.2254444 20.0859941,10.3343333 C21.6138765,11.2147778 23.1494059,12.0835556 24.6818765,12.9562222 C25.1559941,13.2268889 25.5245824,13.5761111 25.5444647,14.147" id="Fill-9"></path>
                        <path d="M0.00749411765,14.0337556 C0.00749411765,9.95586667 0.00825882353,5.87875556 0.0052,1.80086667 C0.00443529412,1.29997778 0.100788235,0.843422222 0.448729412,0.465422222 C0.584847059,0.318422222 0.681964706,0.278755556 0.848670588,0.451422222 C3.54578824,3.25142222 6.24978824,6.04442222 8.95302353,8.8382 C10.7042,10.6473111 12.4538471,12.4579778 14.2119059,14.2593111 C14.3824353,14.4343111 14.3969647,14.5260889 14.2164941,14.7088667 C9.91731765,19.0566444 5.62196471,23.4090889 1.33655294,27.7732 C1.07502353,28.0392 0.890729412,28.0112 0.639905882,27.8144222 C0.181847059,27.4558667 0.0052,26.9744222 0.0052,26.4012 C0.00596470588,23.9862 0.00214117647,21.5712 0.000611764706,19.1562 C-0.000152941177,17.4489778 -0.000152941177,15.7409778 -0.000152941177,14.0337556 L0.00749411765,14.0337556 Z" id="Fill-1"></path>
                    </g>
                </g>
            </g>
        </g>
    </g>
</svg>
